# xmcd
#
# Track frame offsets:
# 150
# 17041
# 30200
# 43100
# 58827
# 69127
# 78949
# 88665
# 101655
# 115366
# 134018
# 151416
#
# Disc length: 2177 seconds
#
#
# Revision: 0
# Processed by: cddbd v1.5.2PL0 Copyright (c) Steve Scherf et al.
# Submitted via: FreeRIP 2.00 
#
DISCID=96087f0c
DTITLE=Heidi Hauge - Some Broken Hearts
DYEAR=2007
DGENRE=Country
TTITLE0=Saturday Night
TTITLE1=The Other Side Of The Hill
TTITLE2=Some Broken Hearts Never Mend
TTITLE3=Down To My Last Teardrop
TTITLE4=What`s  A Girl Gotta Do
TTITLE5=Let`s Pretend
TTITLE6=Louisiana Saturday Night
TTITLE7=I`ve A_lready Loved You In My Mind
TTITLE8=Why Have You Left The One You Left Me For
TTITLE9=Crazy
TTITLE10=I`ll Fly
TTITLE11=One`s On The Way
EXTD=
EXTT0=
EXTT1=
EXTT2=
EXTT3=
EXTT4=
EXTT5=
EXTT6=
EXTT7=
EXTT8=
EXTT9=
EXTT10=
EXTT11=
PLAYORDER=
